<?xml version="1.0" encoding="UTF-8" standalone="no"?>
<svg
   xmlns:dc="http://purl.org/dc/elements/1.1/"
   xmlns:cc="http://creativecommons.org/ns#"
   xmlns:rdf="http://www.w3.org/1999/02/22-rdf-syntax-ns#"
   xmlns:svg="http://www.w3.org/2000/svg"
   xmlns="http://www.w3.org/2000/svg"
   version="1.1"
   id="svg2"
   xml:space="preserve"
   width="260.54535"
   height="275.19867"
   viewBox="0 0 260.54535 275.19867"><metadata
     id="metadata8"><rdf:RDF><cc:Work
         rdf:about=""><dc:format>image/svg+xml</dc:format><dc:type
           rdf:resource="http://purl.org/dc/dcmitype/StillImage" /><dc:title></dc:title></cc:Work></rdf:RDF></metadata><defs
     id="defs6"><clipPath
       clipPathUnits="userSpaceOnUse"
       id="clipPath24"><path
         d="M 0,206.399 H 395.659 V 0 H 0 Z"
         id="path22" /></clipPath><filter
       style="color-interpolation-filters:sRGB"
       id="filter46"
       x="-0.00091299682"
       width="1.001826"
       y="-0.0017501715"
       height="1.0035003"><feGaussianBlur
         stdDeviation="0.15051475"
         id="feGaussianBlur48" /></filter></defs><g
     id="g18"
     style="filter:url(#filter46)"
     transform="matrix(1.3333333,0,0,-1.3333333,-39.883245,277.40683)"><g
       id="g20"
       clip-path="url(#clipPath24)"><g
         id="g38"
         transform="translate(192.002,63.1289)"><path
           d="m 0,0 v 79.23 c 0,0.321 0.276,0.597 0.596,0.597 h 17.418 c 0.32,0 0.596,-0.276 0.596,-0.597 V 13.383 C 18.61,6.029 12.581,0 5.229,0 Z m -22.983,-20.043 c -17.759,0 -32.302,14.545 -32.302,32.303 v 8.906 58.064 c 0,0.321 0.275,0.597 0.596,0.597 h 17.418 c 0.32,0 0.596,-0.276 0.596,-0.597 V 30.43 13.383 13.172 c 0,-9.492 7.767,-17.258 17.258,-17.258 h 15.332 v -7.109 c 0,-4.858 -3.989,-8.848 -8.847,-8.848 z M 0,-4.086 h 5.229 c 9.605,0 17.467,7.861 17.467,17.469 V 79.23 c 0,2.576 -2.106,4.682 -4.682,4.682 H 0.596 c -2.575,0 -4.681,-2.106 -4.681,-4.682 V 0 H -19.417 C -26.654,0 -32.59,5.936 -32.59,13.172 v 0.211 0.062 16.985 48.8 c 0,2.576 -2.106,4.682 -4.681,4.682 h -17.418 c -2.576,0 -4.682,-2.106 -4.682,-4.682 V 21.166 12.26 c 0,-20.014 16.375,-36.387 36.388,-36.387 h 10.051 c 7.113,0 12.932,5.818 12.932,12.932 z"
           style="fill:#ffffff;fill-opacity:1;fill-rule:evenodd;stroke:none"
           id="path40" /></g><g
         id="g42"
         transform="translate(119.8896,122.1055)"><path
           d="m 0,0 v -58.064 c 0,-0.321 -0.275,-0.596 -0.596,-0.596 h -17.419 c -0.319,0 -0.595,0.275 -0.595,0.596 v 48.801 17.047 0.21 c 0,9.492 -7.766,17.258 -17.258,17.258 H -51.2 v 7.11 c 0,4.858 3.989,8.847 8.846,8.847 h 10.052 C -14.543,41.209 0,26.665 0,8.907 Z m -55.285,-58.064 c 0,-0.321 -0.276,-0.596 -0.596,-0.596 H -73.3 c -0.32,0 -0.596,0.275 -0.596,0.596 V 7.784 c 0,7.353 6.031,13.383 13.382,13.383 h 5.229 z m 22.983,103.358 h -10.052 c -7.112,0 -12.931,-5.819 -12.931,-12.932 v -7.11 h -5.229 c -9.606,0 -17.466,-7.86 -17.466,-17.468 v -65.848 c 0,-2.575 2.106,-4.682 4.68,-4.682 h 17.419 c 2.574,0 4.681,2.107 4.681,4.682 v 79.231 h 15.332 c 7.237,0 13.173,-5.936 13.173,-13.173 V 7.784 7.722 -9.263 -58.064 c 0,-2.575 2.106,-4.682 4.68,-4.682 h 17.419 c 2.575,0 4.682,2.107 4.682,4.682 V 0 8.907 c 0,20.013 -16.374,36.387 -36.388,36.387"
           style="fill:#ffffff;fill-opacity:1;fill-rule:evenodd;stroke:none"
           id="path44" /></g></g></g></svg>
