<?xml version="1.0" encoding="UTF-8" standalone="no"?>
<svg
   xmlns:dc="http://purl.org/dc/elements/1.1/"
   xmlns:cc="http://creativecommons.org/ns#"
   xmlns:rdf="http://www.w3.org/1999/02/22-rdf-syntax-ns#"
   xmlns:svg="http://www.w3.org/2000/svg"
   xmlns="http://www.w3.org/2000/svg"
   height="512pt"
   viewBox="-71 0 512 512"
   width="512pt"
   version="1.1"
   id="svg935">
  <metadata
     id="metadata941">
    <rdf:RDF>
      <cc:Work
         rdf:about="">
        <dc:format>image/svg+xml</dc:format>
        <dc:type
           rdf:resource="http://purl.org/dc/dcmitype/StillImage" />
        <dc:title></dc:title>
      </cc:Work>
    </rdf:RDF>
  </metadata>
  <defs
     id="defs939" />
  <path
     d="M 9.4114807,386.52687 10.141714,189.73135 c 0.08997,-24.24593 19.819018,-43.82911 44.064945,-43.73914 l 262.646631,0.97458 c 24.24202,0.09 43.8252,19.81901 43.73523,44.06493 l -0.73023,196.79552 c -0.09,24.24593 -19.81902,43.82911 -44.06104,43.73916 L 53.150619,430.59181 C 28.904692,430.50185 9.3215133,410.7728 9.4114807,386.52687 Z m 0,0"
     fill="#ffcc3b"
     id="path921" />
  <path
     d="M 9.4114807,386.52687 10.141714,189.73135 c 0.08997,-24.24593 19.819018,-43.82911 44.064945,-43.73914 l 262.646631,0.97458 c 24.24202,0.09 43.8252,19.81901 43.73523,44.06493 l -0.73023,196.79552 c -0.09,24.24593 -19.81902,43.82911 -44.06104,43.73916 L 53.150619,430.59181 C 28.904692,430.50185 9.3215133,410.7728 9.4114807,386.52687 Z m 0,0"
     fill="#ffcc3b"
     id="path923" />
  <path
     d="m 241.626,263.87596 -0.1864,50.23403 c -0.0411,11.07024 8.89821,20.08003 19.97235,20.12112 l 98.64385,0.36603 0.33517,-90.3275 -98.64385,-0.36603 c -11.07023,-0.0411 -20.08003,8.89821 -20.12112,19.97235 z m 0,0"
     fill="#ffd876"
     id="path927"
     style="fill:#ffcc3b;fill-opacity:1" />
  <path
     d="m 128.37397,313.69045 0.1864,-50.23403 c 0.0411,-11.07415 -8.89821,-20.08003 -19.97235,-20.12113 l -98.6438517,-0.36603 -0.335171,90.32751 98.6438527,0.36603 c 11.07414,0.0411 20.08004,-8.90212 20.12112,-19.97235 z m 0,0"
     fill="#ffd876"
     id="path929"
     style="fill:#ffcc3b;fill-opacity:1" />
  <path
     d="m 367.35823,387.85507 0.73024,-196.79552 C 368.19364,162.716 345.22077,139.572 316.88112,139.46685 L 54.234489,138.49226 C 25.890934,138.38709 2.7469232,161.36387 2.6417655,189.70352 L 1.9115323,386.49904 C 1.8063602,414.8426 24.78314,437.98661 53.122789,438.09176 l 262.646631,0.97458 c 28.33965,0.10516 51.48364,-22.86771 51.58881,-51.21127 z M 316.82546,154.46674 c 20.07017,0.0745 36.3376,16.46307 36.26311,36.53715 l -0.1697,45.73407 -27.46856,-0.10193 c -4.1406,-0.0154 -7.5124,3.32762 -7.52778,7.47212 -0.0154,4.14059 3.33152,7.51241 7.47212,7.52778 l 27.46856,0.10192 -0.27951,75.32761 -91.14391,-0.3382 c -1.2578,-0.005 -2.47194,-0.19668 -3.61519,-0.54467 -0.17944,-0.0671 -0.3628,-0.13025 -0.55011,-0.18173 -4.86857,-1.74073 -8.35518,-6.40995 -8.33493,-11.86695 l 0.1864,-50.23403 c 0.0203,-5.4609 3.54141,-10.10021 8.42277,-11.80476 0.1877,-0.054 0.37151,-0.1119 0.55144,-0.17764 1.14582,-0.34341 2.36133,-0.5225 3.61914,-0.51783 l 28.65214,0.10632 c 4.1406,0.0154 7.51242,-3.33152 7.52778,-7.47212 0.0154,-4.1445 -3.33152,-7.51241 -7.47212,-7.52778 l -27.37481,-0.10158 0.0128,-3.44138 c 0.1043,-28.10918 -16.39834,-53.74481 -42.03922,-65.30488 -1.12312,-0.50807 -1.84937,-1.64749 -1.84471,-2.90139 l 0.0395,-10.65227 z m -299.353499,81.0265 0.169701,-45.73406 C 17.716135,169.689 34.104749,153.41767 54.17883,153.49216 l 97.60089,0.36216 -0.0395,10.65227 c -0.005,1.2539 -0.73542,2.38791 -1.86619,2.88763 -25.72598,11.37337 -42.4184,36.88192 -42.52272,64.995 l -0.0127,3.43748 z M 53.178448,423.09187 C 33.104367,423.01738 16.836942,406.62878 16.911429,386.5547 l 0.169702,-45.73406 30.159948,0.11191 c 4.144503,0.0154 7.512399,-3.32761 7.527778,-7.47212 0.01536,-4.14059 -3.327617,-7.5124 -7.472119,-7.52778 l -30.159948,-0.11191 0.279512,-75.3276 91.147808,0.33821 c 1.2539,0.005 2.46804,0.19666 3.61129,0.54466 0.17944,0.0671 0.3667,0.13026 0.554,0.18564 4.86857,1.74074 8.35519,6.40605 8.33494,11.86305 l -0.1864,50.23403 c -0.0202,5.45699 -3.5414,10.10021 -8.42276,11.80476 -0.1877,0.054 -0.37542,0.11189 -0.55537,0.18153 -1.1458,0.33951 -2.36131,0.51859 -3.61521,0.51394 l -25.964665,-0.0963 c -4.140598,-0.0154 -7.512414,3.33153 -7.527778,7.47212 -0.01538,4.1445 3.331522,7.51241 7.472119,7.52778 l 24.683424,0.0916 -0.0128,3.44138 c -0.1043,28.10918 16.39834,53.74481 42.03922,65.30488 1.12703,0.50809 1.84937,1.6475 1.84471,2.9014 l -0.0395,10.65227 z m 112.600782,0.41782 0.0395,-10.65227 c 0.0266,-7.16402 -4.16407,-13.69133 -10.67665,-16.62958 -20.25531,-9.13382 -33.28966,-29.37763 -33.20728,-51.5767 l 0.0264,-7.10542 c 8.27544,-4.73495 13.87881,-13.63219 13.91665,-23.83134 l 0.1864,-50.23403 c 0.0378,-10.19524 -5.49934,-19.13772 -13.73942,-23.93005 l 0.0264,-7.10542 c 0.0824,-22.19906 13.26661,-42.3495 33.58913,-51.32884 6.53421,-2.88984 10.77318,-9.38587 10.79978,-16.55379 l 0.0395,-10.65227 37.44115,0.13893 -0.0395,10.65227 c -0.0266,7.16401 4.16407,13.69133 10.67665,16.62957 20.25531,9.13382 33.28966,29.37764 33.20728,51.5767 l -0.0264,7.10542 c -8.27544,4.73495 -13.8749,13.63221 -13.91274,23.83135 l -0.1864,50.23403 c -0.0378,10.19525 5.49543,19.13771 13.73551,23.93004 l -0.0264,7.10542 c -0.0824,22.20297 -13.26661,42.3495 -33.58913,51.32884 -6.53421,2.88984 -10.77318,9.38588 -10.79978,16.5538 l -0.0395,10.65226 z m 52.44105,0.19458 0.0395,-10.65227 c 0.005,-1.25389 0.73933,-2.38789 1.86619,-2.88762 25.72987,-11.36945 42.4184,-36.88192 42.5227,-64.9911 l 0.0128,-3.44139 89.86657,0.33346 -0.1697,45.73407 c -0.0745,20.07408 -16.46309,36.3415 -36.53326,36.26703 z m 0,0"
     id="path933" />
</svg>
